<?xml version="1.0" encoding="UTF-8" standalone="no"?>
<!DOCTYPE svg PUBLIC "-//W3C//DTD SVG 1.1//EN" "http://www.w3.org/Graphics/SVG/1.1/DTD/svg11.dtd">
<svg width="100%" height="100%" viewBox="0 0 1095 363" version="1.1" xmlns="http://www.w3.org/2000/svg" xmlns:xlink="http://www.w3.org/1999/xlink" xml:space="preserve" xmlns:serif="http://www.serif.com/" style="fill-rule:evenodd;clip-rule:evenodd;stroke-linecap:round;stroke-linejoin:round;stroke-miterlimit:1.5;">
    <g id="Prancheta1" transform="matrix(1,0,0,1,14.448161,-381.464718)">
        <rect x="-14.448" y="381.465" width="1094.448" height="362.616" style="fill:none;"/>
        <g transform="matrix(6.395747,0,0,6.82578,-3884.465038,-5451.292299)">
            <g id="Tech_E" transform="matrix(0.083045,0,0,0.077813,539.247157,807.80669)">
                <g opacity="0.6">
                    <g>
                        <g transform="matrix(1,0,0,1,-0.850534,17.61384)">
                            <path d="M1733.78,1086.121L1733.78,932.374" style="fill:none;stroke:rgb(9,228,237);stroke-width:7.84px;"/>
                        </g>
                        <circle cx="1732.929" cy="941.084" r="8.905" style="fill:none;stroke:rgb(9,228,237);stroke-width:7.84px;"/>
                    </g>
                    <g>
                        <g transform="matrix(1,0,0,1,38.711795,-78.71183)">
                            <path d="M1733.78,1086.121L1733.78,932.374" style="fill:none;stroke:rgb(9,228,237);stroke-width:7.84px;"/>
                        </g>
                        <g transform="matrix(1,0,0,1,39.562329,-96.32567)">
                            <circle cx="1732.929" cy="941.084" r="8.905" style="fill:none;stroke:rgb(9,228,237);stroke-width:7.84px;"/>
                        </g>
                    </g>
                </g>
            </g>
            <g id="Tech_D" transform="matrix(0.083045,0,0,0.077813,539.247157,807.80669)">
                <g opacity="0.6">
                    <g transform="matrix(1,0,0,1,-22.361313,-119.953032)">
                        <g transform="matrix(1,0,0,1,274.365665,-33.989197)">
                            <path d="M1733.78,1086.121L1733.78,932.374" style="fill:none;stroke:rgb(9,228,237);stroke-width:7.84px;"/>
                        </g>
                        <g transform="matrix(1,0,0,1,275.216199,-51.603037)">
                            <circle cx="1732.929" cy="941.084" r="8.905" style="fill:none;stroke:rgb(9,228,237);stroke-width:7.84px;"/>
                        </g>
                    </g>
                    <g transform="matrix(1,0,0,1,-22.361313,99.765872)">
                        <g transform="matrix(1,0,0,1,313.927994,-130.314867)">
                            <path d="M1733.78,1086.121L1733.78,932.374" style="fill:none;stroke:rgb(9,228,237);stroke-width:7.84px;"/>
                        </g>
                        <g transform="matrix(1,0,0,1,314.778528,-147.928707)">
                            <circle cx="1732.929" cy="941.084" r="8.905" style="fill:none;stroke:rgb(9,228,237);stroke-width:7.84px;"/>
                        </g>
                    </g>
                </g>
            </g>
            <path d="M610.653,904.307L610.653,867.057L622.803,867.057C626.826,867.057 630.323,867.857 633.295,869.457C636.267,871.057 638.57,873.257 640.203,876.057C641.836,878.857 642.653,882.065 642.653,885.68C642.653,889.265 641.836,892.465 640.203,895.282C638.57,898.099 636.267,900.307 633.295,901.907C630.323,903.507 626.826,904.307 622.803,904.307L610.653,904.307ZM618.403,897.557L623.003,897.557C625.423,897.557 627.52,897.065 629.293,896.082C631.066,895.099 632.445,893.717 633.428,891.936C634.411,890.155 634.903,888.054 634.903,885.635C634.903,883.216 634.412,881.125 633.429,879.36C632.448,877.595 631.073,876.228 629.304,875.26C627.537,874.291 625.436,873.807 623.003,873.807L618.403,873.807L618.403,897.557Z" style="fill:rgb(255,244,244);fill-rule:nonzero;"/>
            <path d="M647.603,904.307L647.603,867.057L661.853,867.057C664.42,867.057 666.695,867.507 668.678,868.407C670.661,869.307 672.22,870.64 673.353,872.407C674.486,874.174 675.053,876.357 675.053,878.957C675.053,881.49 674.47,883.649 673.303,885.432C672.136,887.215 670.57,888.557 668.603,889.457L677.103,904.307L668.403,904.307L659.203,887.857L664.203,890.807L655.353,890.807L655.353,904.307L647.603,904.307ZM655.353,884.057L661.903,884.057C663.003,884.057 663.953,883.84 664.753,883.407C665.553,882.974 666.178,882.374 666.628,881.607C667.078,880.84 667.303,879.957 667.303,878.957C667.303,877.924 667.078,877.024 666.628,876.257C666.178,875.49 665.553,874.89 664.753,874.457C663.953,874.024 663.003,873.807 661.903,873.807L655.353,873.807L655.353,884.057Z" style="fill:rgb(255,244,244);fill-rule:nonzero;"/>
            <path d="M679.096,904.307L696.001,857.855L713.703,904.307L690.719,904.307L697.794,898.652L703.366,898.512L696.68,879.785L689.36,899.147L679.096,904.307Z" style="fill:rgb(10,229,238);fill-rule:nonzero;"/>
            <path d="M717.553,904.307L717.553,867.057L743.053,867.057L743.053,873.807L725.303,873.807L725.303,883.257L740.553,883.257L740.553,890.007L725.303,890.007L725.303,904.307L717.553,904.307Z" style="fill:rgb(255,244,244);fill-rule:nonzero;"/>
            <path d="M753.603,904.307L753.603,873.807L744.153,873.807L744.153,867.057L770.653,867.057L770.653,873.807L761.353,873.807L761.353,904.307L753.603,904.307Z" style="fill:rgb(255,244,244);fill-rule:nonzero;"/>
        </g>
    </g>
</svg>
