<svg width="1600" height="900" viewBox="0 0 1600 900" fill="none" xmlns="http://www.w3.org/2000/svg">
  <defs>
    <linearGradient id="bg" x1="0" y1="0" x2="1600" y2="900" gradientUnits="userSpaceOnUse">
      <stop offset="0" stop-color="#081225"/>
      <stop offset="1" stop-color="#050B17"/>
    </linearGradient>
    <radialGradient id="glow" cx="0" cy="0" r="1" gradientUnits="userSpaceOnUse" gradientTransform="translate(800 450) rotate(90) scale(340 680)">
      <stop stop-color="#00F0FF" stop-opacity="0.22"/>
      <stop offset="1" stop-color="#00F0FF" stop-opacity="0"/>
    </radialGradient>
  </defs>
  <rect width="1600" height="900" fill="url(#bg)"/>
  <rect width="1600" height="900" fill="url(#glow)"/>
  <g stroke="#113154" stroke-width="1" opacity="0.45">
    <path d="M0 120H1600"/><path d="M0 240H1600"/><path d="M0 360H1600"/><path d="M0 480H1600"/><path d="M0 600H1600"/><path d="M0 720H1600"/>
    <path d="M180 0V900"/><path d="M360 0V900"/><path d="M540 0V900"/><path d="M720 0V900"/><path d="M900 0V900"/><path d="M1080 0V900"/><path d="M1260 0V900"/><path d="M1440 0V900"/>
  </g>
  <g>
    <rect x="520" y="260" width="560" height="360" rx="26" fill="#0A1934" stroke="#1A3E67"/>
    <circle cx="800" cy="440" r="112" fill="#0C2547" stroke="#00F0FF" stroke-opacity="0.5" stroke-width="4"/>
    <circle cx="800" cy="440" r="62" fill="#0C1A32" stroke="#8E9AAF" stroke-width="2"/>
    <rect x="580" y="320" width="62" height="22" rx="11" fill="#103662"/>
    <circle cx="1080" cy="350" r="18" fill="#00F0FF" fill-opacity="0.65"/>
  </g>
  <text x="120" y="150" fill="#00F0FF" fill-opacity="0.75" font-family="monospace" font-size="42">01</text>
  <text x="120" y="820" fill="#8E9AAF" font-family="monospace" font-size="50" letter-spacing="3">PHOTOGRAPHY</text>
</svg>
