<svg width="1600" height="900" viewBox="0 0 1600 900" fill="none" xmlns="http://www.w3.org/2000/svg">
  <rect width="1600" height="900" fill="#071022"/>
  <path d="M0 620L290 500L580 570L860 450L1130 540L1400 430L1600 500V900H0V620Z" fill="#0D2748"/>
  <path d="M0 680L290 560L580 630L860 510L1130 600L1400 490L1600 560V900H0V680Z" fill="#0A1D37"/>
  <g fill="#00F0FF" fill-opacity="0.85">
    <circle cx="390" cy="350" r="18"/><circle cx="560" cy="310" r="18"/><circle cx="730" cy="350" r="18"/><circle cx="900" cy="310" r="18"/><circle cx="1070" cy="350" r="18"/>
  </g>
  <rect x="300" y="280" width="820" height="340" rx="18" fill="#0A1A33" stroke="#21486E"/>
  <rect x="350" y="330" width="720" height="240" rx="12" fill="#0F2C50"/>
  <text x="120" y="150" fill="#00F0FF" fill-opacity="0.75" font-family="monospace" font-size="42">05</text>
  <text x="120" y="820" fill="#8E9AAF" font-family="monospace" font-size="50" letter-spacing="3">EVENT COVERAGE</text>
</svg>
